<?xml version="1.0" encoding="UTF-8" standalone="no"?>
<svg
   xmlns:dc="http://purl.org/dc/elements/1.1/"
   xmlns:cc="http://creativecommons.org/ns#"
   xmlns:rdf="http://www.w3.org/1999/02/22-rdf-syntax-ns#"
   xmlns:svg="http://www.w3.org/2000/svg"
   xmlns="http://www.w3.org/2000/svg"
   xmlns:sodipodi="http://sodipodi.sourceforge.net/DTD/sodipodi-0.dtd"
   xmlns:inkscape="http://www.inkscape.org/namespaces/inkscape"
   version="1.1"
   id="layer"
   x="0px"
   y="0px"
   viewBox="-153 -46 512 147.44701"
   xml:space="preserve"
   sodipodi:docname="LJMULogo.svg"
   inkscape:version="1.0.2 (e86c870879, 2021-01-15, custom)"
   width="512"
   height="147.44701"><metadata
   id="metadata11"><rdf:RDF><cc:Work
       rdf:about=""><dc:format>image/svg+xml</dc:format><dc:type
         rdf:resource="http://purl.org/dc/dcmitype/StillImage" /><dc:title></dc:title></cc:Work></rdf:RDF></metadata><defs
   id="defs9" /><sodipodi:namedview
   pagecolor="#ffffff"
   bordercolor="#666666"
   borderopacity="1"
   objecttolerance="10"
   gridtolerance="10"
   guidetolerance="10"
   inkscape:pageopacity="0"
   inkscape:pageshadow="2"
   inkscape:window-width="1920"
   inkscape:window-height="1001"
   id="namedview7"
   showgrid="false"
   inkscape:zoom="0.90015125"
   inkscape:cx="160.66122"
   inkscape:cy="146.59055"
   inkscape:window-x="-9"
   inkscape:window-y="-9"
   inkscape:window-maximized="1"
   inkscape:current-layer="layer"
   inkscape:document-rotation="0" />
<style
   type="text/css"
   id="style2">
	.st0{fill:#00205B;}
</style>
<path
   class="st0"
   d="m 283.83193,69.354394 7.25231,-14.504621 h 6.65506 l -11.17709,20.30647 V 87.186546 H 280.5044 V 75.070921 L 269.41263,54.764452 h 7.16699 z M 116.34622,54.764452 h -6.48441 l 11.51837,32.678058 h 6.65506 l 11.77434,-32.678058 h -6.48442 l -8.44681,25.59639 z m -74.912095,0 h -6.057809 v 19.282614 c 0,9.385343 3.924777,13.992693 13.054156,13.992693 9.129379,0 13.054158,-4.60735 13.054158,-13.992693 V 54.764452 h -6.057812 v 19.453256 c 0,5.972491 -2.388996,8.190845 -6.996346,8.190845 -4.522029,0 -6.911026,-2.218354 -6.911026,-8.190845 V 54.764452 Z m 179.942615,9.470664 4.86332,-3.754137 c -2.73029,-4.436708 -6.82571,-6.56974 -13.22481,-6.56974 -8.10552,0 -12.11562,4.180743 -12.11562,9.641306 0,13.310124 18.60004,7.678917 18.68536,14.589943 0.0853,2.986246 -2.21835,4.436708 -6.39909,4.436708 -3.75414,0 -6.48442,-1.27982 -8.44681,-4.522029 l -4.60735,3.92478 c 3.07157,4.60735 7.67892,5.97249 12.71287,5.97249 8.70277,0 12.96884,-3.839458 13.05416,-10.238555 0.17064,-12.286268 -18.60004,-7.593597 -18.68536,-14.333979 -0.0853,-2.730282 2.13303,-4.095423 5.88717,-4.095423 4.0101,0 6.65506,2.047712 8.27616,4.948636 M 74.026861,54.764452 H 68.05437 v 32.422094 h 5.801849 L 73.600255,64.832365 87.166341,87.186546 h 5.972491 V 54.764452 h -5.801848 l 0.255964,22.439502 z M 165.9179,87.186546 v -5.460563 h -16.89362 v -8.105524 h 15.44316 v -5.289921 h -15.44316 v -8.020202 h 16.89362 v -5.545884 h -22.86611 v 32.422094 z m 85.57726,0 h 6.05781 v -26.87621 h 9.98259 v -5.460563 h -25.93767 v 5.460563 h 9.98259 v 26.87621 z M 237.67311,54.764452 h -5.97249 v 32.422094 h 5.97249 z m -132.07737,0 h -5.972489 v 32.422094 h 5.972489 z m 92.147,32.422094 h -7.42295 l -7.08167,-11.347733 h -5.54588 v 11.347733 h -5.97249 V 54.764452 h 9.89727 c 8.61745,0 13.73673,3.071566 13.73673,10.494519 0,4.522029 -1.96239,7.678918 -5.80185,9.300023 z M 181.87298,70.548892 c 4.52203,0 7.08167,-1.535784 7.08167,-5.289921 0,-3.668816 -2.30368,-5.204599 -6.99635,-5.204599 h -4.18074 v 10.49452 h 4.09542 m -3.07157,-60.40748 h -8.19084 v 32.336773 h 5.80185 l -0.25597,-23.122072 7.50828,20.306469 h 5.71653 l 7.50827,-20.306469 -0.25596,23.122072 h 5.80184 V 10.141412 h -7.59359 l -8.19085,22.098217 z M 35.376316,42.904791 c 1.109177,0.255964 2.303675,0.341285 3.583492,0.341285 7.678916,0 11.347732,-3.583494 11.347732,-13.054158 V 10.056091 h -5.972491 v 20.135827 c 0,5.887169 -1.706426,7.422953 -5.545884,7.422953 -1.365137,0 -2.388993,-0.255964 -3.327527,-0.426607 v 5.716527 z M 354.13668,19.526755 359,15.772617 c -2.73029,-4.436707 -6.82571,-6.569739 -13.22481,-6.569739 -8.10552,0 -12.11562,4.180743 -12.11562,9.641307 0,13.310123 18.60004,7.678917 18.68536,14.589942 0.0853,2.986246 -2.21835,4.436708 -6.39909,4.436708 -3.75414,0 -6.48442,-1.27982 -8.44681,-4.522029 l -4.60735,3.92478 c 3.07157,4.60735 7.67892,5.97249 12.71287,5.97249 8.70277,0 12.96884,-3.839458 13.05416,-10.238555 0.17064,-12.286267 -18.60004,-7.593596 -18.68536,-14.333979 -0.0853,-2.730282 2.13303,-4.095423 5.88717,-4.095423 4.0101,0 6.74038,2.047712 8.27616,4.948636 M 128.88845,10.141412 h -5.97249 v 32.336773 h 5.80185 l -0.25596,-22.35418 13.56608,22.35418 h 5.9725 V 10.141412 h -5.80185 l 0.25596,22.439502 z m -31.91016,0 H 91.005799 V 42.478185 H 96.97829 V 28.570813 h 13.90737 v 13.907372 h 6.05781 V 10.141412 h -6.05781 V 23.11025 H 96.97829 Z M 70.69933,9.202878 c 8.702773,0 15.272513,4.777992 15.272513,17.06426 0,12.200946 -6.655061,16.978938 -15.272513,16.978938 -8.702772,0 -15.272512,-4.777992 -15.272512,-16.978938 -0.08532,-12.286268 6.56974,-17.06426 15.272512,-17.06426 m 0,28.582635 c 5.375242,0 8.958737,-3.498173 8.958737,-11.518375 0,-8.020202 -3.583495,-11.518376 -8.958737,-11.518376 -5.375241,0 -9.044057,3.498174 -9.044057,11.518376 0,8.020202 3.583494,11.518375 9.044057,11.518375 M 256.52912,9.202878 c 8.70277,0 15.27251,4.777992 15.27251,17.06426 0,12.200946 -6.65506,16.978938 -15.27251,16.978938 -8.70278,0 -15.27252,-4.777992 -15.27252,-16.978938 0,-12.286268 6.56974,-17.06426 15.27252,-17.06426 m 0,28.582635 c 5.37524,0 8.95873,-3.498173 8.95873,-11.518375 0,-8.020202 -3.58349,-11.518376 -8.95873,-11.518376 -5.37524,0 -9.04406,3.498174 -9.04406,11.518376 0,8.020202 3.66882,11.518375 9.04406,11.518375 M 222.22996,9.202878 c 8.70277,0 15.27251,4.777992 15.27251,17.06426 0,12.200946 -6.65506,16.978938 -15.27251,16.978938 -8.70278,0 -15.27252,-4.777992 -15.27252,-16.978938 0,-12.286268 6.65506,-17.06426 15.27252,-17.06426 m 0,28.582635 c 5.37524,0 8.95873,-3.498173 8.95873,-11.518375 0,-8.020202 -3.58349,-11.518376 -8.95873,-11.518376 -5.37525,0 -9.04406,3.498174 -9.04406,11.518376 0,8.020202 3.66881,11.518375 9.04406,11.518375 m 107.16355,4.692672 v -5.460563 h -16.89362 v -8.105524 h 15.44315 v -5.28992 h -15.44315 v -8.020203 h 16.89362 V 10.141412 H 306.5274 v 32.336773 z m -26.87621,0 h -7.42296 l -7.08166,-11.347733 h -5.54589 V 42.478185 H 276.4943 V 10.141412 h 9.89727 c 8.61745,0 13.73673,3.071567 13.73673,10.49452 0,4.522029 -1.96239,7.678917 -5.80185,9.300022 z M 286.64754,25.840532 c 4.52202,0 7.08166,-1.535784 7.08166,-5.289921 0,-3.668816 -2.30367,-5.2046 -6.99634,-5.2046 h -4.18075 v 10.494521 h 4.09543 m -48.0359,-61.346011 c 8.70278,0 15.27252,4.777992 15.27252,17.064256 0,12.2009458 -5.97249,16.9789383 -14.58995,16.9789383 -8.70277,0 -16.0404,-4.7779925 -16.0404,-16.9789383 0,-12.286264 6.65506,-17.064256 15.35783,-17.064256 m 0,28.5826314 c 5.37525,0 8.95874,-3.4981734 8.95874,-11.5183754 0,-7.934877 -3.58349,-11.518372 -8.95874,-11.518372 -5.37524,0 -9.04405,3.498173 -9.04405,11.518372 0,8.020202 3.58349,11.5183754 9.04405,11.5183754 M 204.31248,-35.505479 c 8.70277,0 15.27251,4.777992 15.27251,17.064256 0,12.2009458 -6.65506,16.9789383 -15.27251,16.9789383 -8.70277,0 -15.27251,-4.7779925 -15.27251,-16.9789383 0,-12.286264 6.65506,-17.064256 15.27251,-17.064256 m 0,28.5826314 c 5.37524,0 8.95874,-3.4981734 8.95874,-11.5183754 0,-7.934877 -3.5835,-11.518372 -8.95874,-11.518372 -5.37524,0 -9.04406,3.498173 -9.04406,11.518372 0,8.020202 3.66882,11.5183754 9.04406,11.5183754 m -77.81302,4.6926712 V -7.6907393 H 109.60584 V -15.796263 H 125.049 v -5.28992 h -15.44316 v -8.020199 h 16.89362 v -5.460563 H 103.63335 V -2.2301764 Z M 76.671821,-34.566945 h -6.484418 l 11.518375,32.6780538 h 6.655061 L 100.13518,-34.566945 h -6.48442 l -8.446809,25.5963863 z m 188.304109,0 h -5.9725 v 32.3367686 h 19.79455 v -5.4605629 h -13.82205 z m -223.541805,0 H 35.461638 V -2.2301764 H 55.256176 V -7.6907393 H 41.434125 Z m 24.231249,0 h -5.972491 v 32.3367686 h 5.972491 z m 92.488286,32.3367686 h -7.42295 l -7.08167,-11.3477326 h -5.54588 v 11.3477326 h -5.9725 V -34.566945 h 9.81195 c 8.61745,0 13.73673,3.071567 13.73673,10.49452 0,4.522025 -1.96239,7.678913 -5.80185,9.300018 z M 142.2839,-18.782508 c 4.52203,0 7.08167,-1.535783 7.08167,-5.289917 0,-3.668816 -2.30368,-5.2046 -6.99635,-5.2046 h -4.18074 v 10.494517 h 4.09542 m 29.86245,-15.784437 c 8.61745,0 13.73673,3.242209 13.73673,10.921126 0,7.166986 -4.52203,10.921123 -13.2248,10.921123 h -4.35139 V -2.1448551 H 162.3344 V -34.481624 h 9.81195 m 0.34129,16.467008 c 4.52203,0 7.08167,-1.621105 7.08167,-5.716524 0,-3.92478 -2.30368,-5.631206 -6.99635,-5.631206 h -4.18074 v 11.262408 h 4.09542 M -72.81109,9.885448 c -28.66796,-19.4532558 -28.41199,-34.896408 -28.75328,-37.882653 0,0 -17.14958,-6.655061 -17.14958,-6.56974 1.10917,1.96239 6.48442,17.917469 33.957879,40.612935 7.508274,6.228454 21.927573,16.637654 21.586288,26.876209 -0.170643,4.180744 -3.498173,6.996347 -9.555985,6.996347 -16.125726,0 -25.255105,-15.78444 -34.384482,-31.910167 -11.09177,-19.794541 -23.2074,-38.223938 -44.62304,-44.878999 -0.68258,-0.170643 -1.02386,-0.170643 -1.1945,0.08532 -0.17065,0.255964 -0.0853,0.511928 0.76789,1.023856 17.57619,11.17709 25.85235,26.2789565 34.81109,41.807433 5.6312,9.811949 10.92113,19.111971 17.832154,25.937675 7.764238,7.678917 16.467011,11.518375 27.217494,11.518375 11.17709,0 17.320223,-4.351386 17.320223,-12.200945 0.08532,-8.446809 -9.982591,-16.125727 -17.832151,-21.415647 m 48.803782,16.125726 c -0.767891,-0.255964 -1.109176,-0.170642 -1.279819,0.170643 -0.170643,0.341285 0.170643,0.767891 0.597249,1.023855 9.044058,6.399098 13.310123,13.992693 13.310123,23.292715 0,7.337631 -3.327531,26.27896 -35.749624,48.889103 -1.194498,0.767891 -1.962391,1.365141 -1.621105,1.877071 0.08532,0.17064 0.597249,0.34129 1.450462,-0.0853 C -26.14034,91.367289 -4.5540515,72.169997 -4.5540515,49.815816 -4.6393728,36.591015 -16.499033,28.570813 -24.007308,26.011174 m 37.200087,-48.889101 c 0.08532,0 -2.730282,3.668812 -5.8871701,5.887166 -4.6926714,3.24221 -10.4945197,4.777993 -12.1156243,-1.877068 l -8.6174506,1.36514 c -1.706427,2.047712 -3.498174,4.266065 -5.033957,6.399098 5.375242,4.8633138 9.1293788,13.1394795 8.7880936,13.651407 -0.085321,0.08532 -0.3412856,-0.2559636 -1.2798186,-1.0238553 -1.706426,-1.4504621 -5.972492,-4.6926714 -11.177091,-7.3376314 -6.143133,8.5321297 -9.982591,17.5761867 -11.944981,25.9376757 -2.133033,8.873415 -2.047711,17.320223 0,26.705566 0,0 -4.095423,5.716527 -4.095423,5.716527 -1.791747,-6.56974 -3.668815,-14.333978 -2.388996,-23.975285 1.450462,-11.006447 6.825704,-22.780787 16.040404,-35.5789819 l -0.341286,-0.1706426 c -5.97249,-2.7302815 -19.623898,-9.4706645 -43.343219,-5.1192775 0,0 -0.68257,0.08532 -1.023855,0.170642 0,0 0,0 0,0 -0.853213,0 -5.204599,-5.545884 -8.702773,-10.153235 l -0.08532,-0.08532 c -2.474318,0.08532 -2.559639,0 -2.64496,0 -0.597249,-0.341282 -3.327531,-3.49817 -3.242209,-3.583491 5.801848,2.64496 8.873415,1.535783 13.480765,1.706426 3.668815,0.08532 10.665162,1.109177 12.968837,6.655058 3.668815,0 14.931227,0.08532 22.439501,1.194498 0.511928,0.08532 2.133033,0.426607 2.133033,0.426607 -5.460563,-4.180744 -10.409199,-6.825701 -13.82205,-8.617448 -5.80185,-2.986246 -10.665163,-6.143134 -12.968838,-11.347733 -9.129379,-3.839458 -31.995487,-4.60735 -39.162476,2.133033 0,0 -0.08532,0.08532 -0.08532,0 -17.064265,-5.88717 -24.231255,-9.385343 -24.231255,-9.470664 0,-0.170643 22.69547,1.791747 32.166136,1.791747 0.255964,0 22.780786,0 30.971631,2.986245 0.08532,0 0.08532,0 0.170643,0.08532 6.569739,9.2147 20.989039,9.129378 39.930367,25.681707 1.535783,-1.96239 3.412852,-4.010101 5.204599,-5.887169 l 1.109177,-9.044055 c -2.474318,-0.08532 -4.60735,-1.706426 -5.119278,-4.010101 -0.68257,-2.900924 0.767892,-6.484419 4.266065,-11.006447 C -13.000858,-44.549538 -11.20911,-46 -11.20911,-46 c 0.255964,2.474318 0.938534,4.266065 1.7064252,6.143133 0.6825704,1.877069 4.4367075,10.579841 -3.2422092,12.115625 l -0.426606,7.508271 c 3.4128513,-3.583491 7.5935949,-7.508271 11.6036959,-11.006444 -1.6211047,-1.791748 -2.0477112,-4.351387 -1.0238556,-6.313776 1.4504621,-2.644961 4.7779927,-4.266065 10.4091984,-5.289921 2.3036753,-0.426606 4.7779933,-0.341285 4.7779933,-0.341285 -2.9862464,3.156888 -4.7779933,17.576187 -13.56608699,12.371588 -3.75413711,3.668816 -7.59359551,7.84956 -10.83580401,11.689015 l 7.3376308,-0.682571 c 0.9385342,-7.849556 9.6413067,-4.948632 11.5183752,-4.351383 1.6211047,0.597249 3.071567,1.109177 6.143134,1.27982 m -75.679992,4.522025 c -1.962389,-1.450462 -6.143133,-3.668816 -12.030303,-4.010101 1.023856,2.047712 3.668816,6.740383 7.934881,7.337632 0.255964,-0.08532 4.010101,-0.511928 4.095422,-3.327531"
   id="path4"
   style="stroke-width:0.853213" />
</svg>
